<?xml version="1.0" encoding="UTF-8"?>
<svg version="1.1" xmlns="http://www.w3.org/2000/svg" width="454" height="516">
<path d="M0 0 C4.24038377 1.78365954 8.19250119 3.97649053 12.1875 6.25 C13.33951904 6.88824707 14.49153809 7.52649414 15.6784668 8.18408203 C19.13228948 10.09969872 22.56730995 12.04675963 26 14 C27.38106934 14.78358887 27.38106934 14.78358887 28.79003906 15.58300781 C32.14072701 17.48764972 35.48718822 19.39930558 38.82641602 21.32397461 C46.21041342 25.57629455 53.6598215 29.70518628 61.125 33.8125 C62.04489212 34.31878433 62.04489212 34.31878433 62.98336792 34.83529663 C65.47187773 36.20485999 67.96046482 37.57428266 70.44923401 38.94337463 C86.07334165 47.54066643 101.6508039 56.21939436 117.16210938 65.01855469 C125.48538515 69.73011306 133.85773915 74.35067757 142.23669434 78.96209717 C151.73367147 84.18926779 161.2058466 89.45847472 170.65844727 94.765625 C176.14383693 97.84415554 181.63496457 100.91177642 187.13671875 103.9609375 C188.03710876 104.46012947 188.03710876 104.46012947 188.95568848 104.96940613 C191.84203984 106.56935666 194.72921521 108.16777379 197.61767578 109.76391602 C200.75064942 111.49957092 203.87621411 113.24787178 207 115 C208.10649902 115.61246582 209.21299805 116.22493164 210.35302734 116.85595703 C211.42633301 117.46165527 212.49963867 118.06735352 213.60546875 118.69140625 C214.5699292 119.23095947 215.53438965 119.7705127 216.52807617 120.32641602 C219.09167599 122.06206804 220.36369386 123.39597191 222 126 C222.37719816 128.15816826 222.37719816 128.15816826 222.38031673 130.53874111 C222.38875668 131.44930466 222.39719662 132.35986821 222.40589231 133.29802459 C222.39988227 134.29460919 222.39387222 135.29119378 222.38768005 136.31797791 C222.39575836 137.91039813 222.39575836 137.91039813 222.40399987 139.53498846 C222.41834527 143.10409021 222.41115935 146.67282451 222.40405273 150.24194336 C222.40975284 152.79596761 222.41671569 155.3499893 222.42485046 157.90400696 C222.44096713 164.12825734 222.44287447 170.35237129 222.43763756 176.57663625 C222.43359821 181.6351473 222.43503661 186.69362851 222.44038582 191.75213814 C222.44113424 192.47174649 222.44188266 193.19135483 222.44265376 193.9327695 C222.44418522 195.39459471 222.44572357 196.85641992 222.44726873 198.31824512 C222.46100084 212.03101518 222.45555112 225.7437282 222.44408352 239.45649696 C222.43415052 252.00444941 222.44709165 264.55225443 222.47101771 277.10018414 C222.49539434 289.98136163 222.50502012 302.86247042 222.49836498 315.74367052 C222.49486954 322.97671423 222.49712619 330.20964453 222.51461601 337.44267082 C222.53085536 344.2429737 222.5261788 351.04294948 222.50731087 357.84325981 C222.50361272 360.34223882 222.50676888 362.84123853 222.51719666 365.34019852 C222.53032384 368.74547429 222.51893154 372.14980405 222.50120544 375.55503845 C222.51081045 376.54939232 222.52041546 377.54374619 222.53031152 378.568232 C222.48390766 382.88588257 222.42108474 385.31851537 220.11193943 389.05564213 C217.89272326 391.09876437 215.84299805 392.4843859 213.16796875 393.875 C212.21704346 394.37813721 211.26611816 394.88127441 210.28637695 395.3996582 C209.26374756 395.927771 208.24111816 396.45588379 207.1875 397 C204.99639746 398.15826958 202.8063165 399.31847348 200.6171875 400.48046875 C199.50698242 401.06747559 198.39677734 401.65448242 197.25292969 402.25927734 C192.39168413 404.86064936 187.6009381 407.5800665 182.8125 410.3125 C174.20095416 415.20882357 165.55195032 420.03339226 156.875 424.8125 C156.26735809 425.14721313 155.65971619 425.48192627 155.03366089 425.82678223 C151.93302649 427.53439134 148.83188862 429.24108358 145.73046875 430.94726562 C139.60963776 434.31476227 133.49211658 437.68826199 127.375 441.0625 C126.77486084 441.39350708 126.17472168 441.72451416 125.55639648 442.06555176 C113.47108797 448.73204772 101.40469477 455.4323976 89.34277344 462.14111328 C83.7295386 465.26258349 78.1146837 468.3811369 72.5 471.5 C70.24999232 472.74998618 67.99999232 473.99998618 65.75 475.25 C52.25 482.75 52.25 482.75 48.86962891 484.62792969 C46.63747103 485.86805334 44.40537388 487.10828629 42.17333984 488.34863281 C36.90784929 491.27450452 31.64175149 494.19926665 26.37347412 497.12011719 C23.88863423 498.49785653 21.40414271 499.8762234 18.91967773 501.25463867 C17.16879636 502.22570973 15.41741235 503.19587435 13.66601562 504.16601562 C12.60318359 504.75576172 11.54035156 505.34550781 10.4453125 505.953125 C9.51219238 506.47036133 8.57907227 506.98759766 7.61767578 507.52050781 C5.85464153 508.51696254 4.11878067 509.56289963 2.41210938 510.65307617 C-1.50232938 512.83890194 -4.63788047 512.85517259 -9 512 C-13.34868191 510.18566423 -17.32741053 507.83921103 -21.375 505.4375 C-22.56327564 504.7518615 -23.75275574 504.0683067 -24.94335938 503.38671875 C-27.41195449 501.97137605 -29.8751661 500.5472775 -32.33496094 499.11669922 C-38.00934682 495.82658936 -43.75847132 492.67091454 -49.5 489.5 C-51.74512214 488.25319906 -53.98991281 487.00580107 -56.234375 485.7578125 C-60.7851721 483.2294455 -65.33739765 480.70367516 -69.890625 478.1796875 C-81.34103459 471.82982618 -92.76937376 465.44526406 -104.15722656 458.98388672 C-112.52618839 454.24589541 -120.94716511 449.60432604 -129.37347412 444.96951294 C-138.37056817 440.01947987 -147.32863068 435.00526784 -156.2578125 429.93359375 C-163.97165493 425.5609839 -171.73109701 421.27361344 -179.5 417 C-188.58627544 412.00008937 -197.65645428 406.97432397 -206.6875 401.875 C-207.58855469 401.36710937 -208.48960937 400.85921875 -209.41796875 400.3359375 C-211.95156414 398.90125095 -214.47658455 397.45250255 -217 396 C-217.90959473 395.48598633 -218.81918945 394.97197266 -219.75634766 394.44238281 C-221.09318604 393.67039551 -221.09318604 393.67039551 -222.45703125 392.8828125 C-223.25729736 392.42535645 -224.05756348 391.96790039 -224.88208008 391.49658203 C-227.80417085 389.43175016 -229.74649623 387.44603012 -230.37834883 383.84183174 C-230.37992003 383.0562427 -230.38149123 382.27065366 -230.38311005 381.46125889 C-230.39216669 380.55069534 -230.40122333 379.64013179 -230.41055441 378.70197541 C-230.40522648 377.70539081 -230.39989856 376.70880622 -230.39440918 375.68202209 C-230.40050028 374.62040861 -230.40659139 373.55879513 -230.41286707 372.46501154 C-230.4295602 368.89591886 -230.42471216 365.32718049 -230.41992188 361.75805664 C-230.42725849 359.20403165 -230.43584352 356.65000998 -230.44558716 354.09599304 C-230.46553966 347.8717488 -230.47118145 341.64763566 -230.46939927 335.42336375 C-230.46809222 330.3648516 -230.47189289 325.30636854 -230.47932434 320.24786186 C-230.48142351 318.79138436 -230.48352111 317.33490686 -230.48561716 315.87842935 C-230.48666069 315.15352678 -230.48770422 314.4286242 -230.48877937 313.68175488 C-230.50768571 299.96898898 -230.50663027 286.25627657 -230.49981004 272.54350304 C-230.49423365 259.99552337 -230.5150633 247.44774782 -230.54817051 234.89981586 C-230.58189348 222.01863612 -230.59707763 209.1375542 -230.59245348 196.25632948 C-230.59020745 189.02325393 -230.59547137 181.79036705 -230.62034607 174.55732918 C-230.64353344 167.75697818 -230.64079359 160.95712234 -230.62041855 154.15674019 C-230.61699615 151.65775728 -230.62215007 149.15874609 -230.63640213 146.65980148 C-230.65448738 143.25435242 -230.64192371 139.85036507 -230.62145996 136.44496155 C-230.63397781 135.45060768 -230.64649566 134.45625381 -230.65939283 133.431768 C-230.5992335 128.7782995 -230.55021208 126.7015064 -227.60181427 122.94237423 C-225.25513612 121.19047087 -222.99140297 119.61069939 -220.4296875 118.1953125 C-219.54748535 117.70232666 -218.6652832 117.20934082 -217.75634766 116.70141602 C-216.80550293 116.18119873 -215.8546582 115.66098145 -214.875 115.125 C-213.86872559 114.56546631 -212.86245117 114.00593262 -211.82568359 113.42944336 C-209.66772429 112.23070573 -207.50766067 111.03574986 -205.34570312 109.84423828 C-202.01249781 108.00688911 -198.6851105 106.15942512 -195.359375 104.30859375 C-190.82743849 101.78689149 -186.29343664 99.26896947 -181.7578125 96.75390625 C-175.3289525 93.18630283 -168.91273164 89.59649398 -162.5 86 C-148.21818708 77.99243485 -133.90102074 70.04885113 -119.58398438 62.10449219 C-106.51320082 54.85084327 -93.45215854 47.58067172 -80.41357422 40.26928711 C-71.66235451 35.36455296 -62.89325574 30.49239963 -54.12109375 25.62524414 C-45.22788167 20.6885067 -36.3503064 15.72427408 -27.48242188 10.7421875 C-25.58631035 9.67810869 -23.68730077 8.61917428 -21.78515625 7.56591797 C-19.88049897 6.49504912 -17.99288631 5.39344289 -16.12109375 4.26611328 C-6.02047243 -1.66817542 -6.02047243 -1.66817542 0 0 Z M-10.66015625 23.0078125 C-11.23283737 23.32476074 -11.80551849 23.64170898 -12.39555359 23.96826172 C-14.28684243 25.01641113 -16.17467339 26.07062938 -18.0625 27.125 C-19.38230851 27.8582315 -20.70229755 28.59113812 -22.02246094 29.32373047 C-26.01834036 31.54313712 -30.00955261 33.77084559 -34 36 C-35.12712402 36.6290625 -36.25424805 37.258125 -37.41552734 37.90625 C-43.59763218 41.3583116 -49.7742595 44.82005733 -55.94824219 48.28662109 C-61.08902859 51.17286421 -66.2316953 54.05574732 -71.375 56.9375 C-72.39996582 57.51185791 -73.42493164 58.08621582 -74.48095703 58.67797852 C-82.18514054 62.99181624 -89.90337903 67.27997106 -97.625 71.5625 C-105.93699552 76.1729768 -114.23131224 80.81229674 -122.5 85.5 C-131.90712399 90.83310811 -141.3514923 96.09677062 -150.80810547 101.34155273 C-162.55831897 107.859681 -174.27912798 114.42920811 -186 121 C-194.25 125.62 -202.5 130.24 -211 135 C-211 214.86 -211 294.72 -211 377 C-192.35532434 387.54844795 -192.35532434 387.54844795 -173.625 397.9375 C-171.15041508 399.29834247 -168.67661237 400.66060126 -166.203125 402.0234375 C-165.59467743 402.35865921 -164.98622986 402.69388092 -164.35934448 403.03926086 C-157.32312452 406.91943805 -150.3158825 410.85108759 -143.30859375 414.78320312 C-135.75737679 419.01936868 -128.19470694 423.23446678 -120.625 427.4375 C-119.50625488 428.05874756 -118.38750977 428.67999512 -117.23486328 429.32006836 C-111.52484319 432.49006874 -105.81356842 435.65779826 -100.1015625 438.82421875 C-88.65396416 445.17314274 -77.22809365 451.55617291 -65.84277344 458.01611328 C-60.55440516 461.01006204 -55.25124329 463.97561621 -49.9296875 466.91015625 C-49.32228226 467.24558945 -48.71487701 467.58102264 -48.08906555 467.92662048 C-44.99539036 469.63297455 -41.89645778 471.32842975 -38.78686523 473.00561523 C-32.89817179 476.19579758 -27.184488 479.46757223 -21.60546875 483.1875 C-12.9085792 489.42773085 -12.9085792 489.42773085 -2.83837891 491.96972656 C1.66899678 490.86180506 5.16621666 488.28365992 8.83837891 485.54003906 C12.89397928 482.65064137 17.32924291 480.39562783 21.6875 478 C23.66709041 476.8754284 25.64490175 475.7477204 27.62109375 474.6171875 C34.46276083 470.7232429 41.35293589 466.91948981 48.25 463.125 C50.72145522 461.76450643 53.19277778 460.403772 55.6640625 459.04296875 C56.27614059 458.70598465 56.88821869 458.36900055 57.5188446 458.02180481 C63.89618862 454.50923243 70.2616147 450.97528999 76.625 447.4375 C77.73069336 446.82277832 78.83638672 446.20805664 79.97558594 445.57470703 C82.20286149 444.33621177 84.43007518 443.09760525 86.65722656 441.85888672 C93.39679422 438.1110728 100.13855265 434.36720096 106.87988281 430.62255859 C112.48052472 427.51136073 118.08066793 424.39927293 123.6796875 421.28515625 C135.27560381 414.83695979 146.88037217 408.40533831 158.5 402 C167.78004799 396.88349317 177.05777723 391.76284475 186.32495117 386.62304688 C188.08660684 385.64628729 189.84895988 384.67078579 191.61132812 383.6953125 C192.67029297 383.1075 193.72925781 382.5196875 194.8203125 381.9140625 C195.75117676 381.3979541 196.68204102 380.8818457 197.64111328 380.35009766 C199.4694536 379.30365573 201.24718202 378.16854532 203 377 C203.44824778 375.14306866 203.44824778 375.14306866 203.36914349 372.97450066 C203.37511663 372.12753683 203.38108978 371.280573 203.38724393 370.40794361 C203.3785054 369.4721598 203.36976688 368.536376 203.36076355 367.57223511 C203.36332682 366.58230659 203.3658901 365.59237807 203.36853105 364.57245171 C203.37349757 361.23417391 203.35692868 357.89634204 203.34057617 354.55810547 C203.33973052 352.17360444 203.34020383 349.78910263 203.34190369 347.40460205 C203.34267766 341.58814078 203.32963361 335.77182711 203.31059071 329.95539962 C203.2891767 323.18918349 203.28465798 316.42298859 203.2812262 309.6567433 C203.27465578 297.58965309 203.25467866 285.52262362 203.22631836 273.45556641 C203.19879303 261.73161117 203.17755199 250.00767242 203.16479492 238.28369141 C203.16400675 237.56136392 203.16321858 236.83903644 203.16240653 236.09482025 C203.15849149 232.47121638 203.15470035 228.84761239 203.15097082 225.22400832 C203.11985655 195.14929631 203.06678217 165.07465525 203 135 C202.36618251 134.65475186 201.73236502 134.30950373 201.07934093 133.95379353 C198.18249299 132.37557273 195.28594629 130.79679982 192.3894043 129.21801758 C191.39231194 128.67490181 190.39521957 128.13178604 189.36791229 127.57221222 C182.8159871 124.0003855 176.29294233 120.38756519 169.8125 116.6875 C161.44176779 111.93334779 153.04382942 107.23094322 144.625 102.5625 C135.90583338 97.72746657 127.1957719 92.87699012 118.5 88 C109.84456546 83.14629968 101.17697096 78.31509209 92.5 73.5 C78.61713669 65.79514009 64.76459758 58.03676451 50.91601562 50.27050781 C47.81924627 48.53408401 44.72221435 46.79812996 41.625 45.0625 C40.61324707 44.49547363 39.60149414 43.92844727 38.55908203 43.34423828 C32.91248912 40.18232424 27.26036166 37.03062495 21.6015625 33.890625 C20.98572296 33.54885727 20.36988342 33.20708954 19.73538208 32.85496521 C16.74705823 31.19689552 13.75801373 29.54015169 10.76806641 27.88500977 C9.69476074 27.29002686 8.62145508 26.69504395 7.515625 26.08203125 C6.56977539 25.55843018 5.62392578 25.0348291 4.64941406 24.49536133 C2.83677854 23.47228793 1.04741761 22.40715856 -0.71972656 21.30737305 C-4.84525432 18.94204102 -6.72419077 20.81944603 -10.66015625 23.0078125 Z " fill="#D13AA7" transform="translate(231,2)"/>
<path d="M0 0 C2.48032485 1.82398158 4.57219621 3.72018714 6.671875 5.96484375 C4.58797847 12.12055108 0.37758599 15.77335215 -4.140625 20.27734375 C-4.94822266 21.11330078 -5.75582031 21.94925781 -6.58789062 22.81054688 C-7.76834961 23.99487305 -7.76834961 23.99487305 -8.97265625 25.203125 C-9.68784424 25.92540283 -10.40303223 26.64768066 -11.13989258 27.3918457 C-13.79321976 29.29917439 -15.1270955 29.43942359 -18.328125 28.96484375 C-20.00335895 27.64229063 -21.66919318 26.30778856 -23.328125 24.96484375 C-31.02176474 21.82458263 -39.81789727 21.74884442 -47.640625 24.52734375 C-54.63285511 27.70869604 -59.52016149 32.78893701 -62.328125 39.96484375 C-63.33170569 43.98602724 -63.46621565 47.78551592 -63.48925781 51.9230957 C-63.49422272 52.603479 -63.49918762 53.2838623 -63.50430298 53.98486328 C-63.51884628 56.22429434 -63.52571345 58.46365457 -63.53125 60.703125 C-63.53407738 61.47186636 -63.53690475 62.24060772 -63.53981781 63.03264427 C-63.55477888 67.1007865 -63.56402777 71.16889354 -63.56835938 75.23706055 C-63.57383943 79.4232171 -63.59786628 83.60904765 -63.62633133 87.79510212 C-63.64502461 91.02860941 -63.65016685 94.26203919 -63.65169525 97.49559593 C-63.65470722 99.03805511 -63.66268618 100.5805134 -63.67588043 102.12291908 C-63.76084965 112.81915236 -63.30448746 121.29152826 -56.328125 129.96484375 C-49.03790418 136.49013776 -42.41984272 138.4820682 -32.66015625 138.359375 C-27.52010726 137.75076428 -23.6911702 135.61641818 -19.328125 132.96484375 C-18.26271484 132.51238281 -18.26271484 132.51238281 -17.17578125 132.05078125 C-14.8296669 130.67188106 -14.35693558 129.45227911 -13.328125 126.96484375 C-12.98652344 126.34609375 -12.64492188 125.72734375 -12.29296875 125.08984375 C-7.99308692 116.1957916 -8.58660747 106.65793624 -8.328125 96.96484375 C-17.568125 96.96484375 -26.808125 96.96484375 -36.328125 96.96484375 C-37.75316065 94.11477244 -37.45792535 91.6786412 -37.4609375 88.49609375 C-37.46287109 86.55669922 -37.46287109 86.55669922 -37.46484375 84.578125 C-37.46274902 83.90346191 -37.4606543 83.22879883 -37.45849609 82.53369141 C-37.45314593 80.47290686 -37.45844535 78.41234026 -37.46484375 76.3515625 C-37.46355469 75.05863281 -37.46226562 73.76570313 -37.4609375 72.43359375 C-37.45980957 71.24185547 -37.45868164 70.05011719 -37.45751953 68.82226562 C-37.328125 65.96484375 -37.328125 65.96484375 -36.328125 63.96484375 C-16.198125 63.96484375 3.931875 63.96484375 24.671875 63.96484375 C24.73375 72.95734375 24.795625 81.94984375 24.859375 91.21484375 C24.90034302 95.4363623 24.90034302 95.4363623 24.94213867 99.74316406 C24.95091229 102.00976128 24.95855415 104.27636328 24.96484375 106.54296875 C24.9878656 108.26459229 24.9878656 108.26459229 25.01135254 110.02099609 C25.01674946 126.92415775 19.32387682 141.62374505 7.671875 153.96484375 C-4.51934965 165.66756985 -20.38095374 172.52102685 -37.28027344 172.31445312 C-55.60033283 171.67286089 -69.9577251 163.96112698 -82.328125 150.96484375 C-99.466592 132.25115 -98.6652474 108.2538942 -98.58886719 84.44970703 C-98.57815003 80.47412868 -98.58880615 76.49900211 -98.6015625 72.5234375 C-98.61627056 47.15521748 -97.42199319 24.815434 -78.9609375 5.47265625 C-56.65869928 -15.77072199 -24.99856966 -16.02065695 0 0 Z " fill="#D92DD8" transform="translate(329.328125,198.03515625)"/>
<path d="M0 0 C0.65421936 -0.00014603 1.30843872 -0.00029205 1.98248291 -0.0004425 C4.13052768 0.00025045 6.27848418 0.00801375 8.42651367 0.01586914 C9.92152357 0.01773552 11.41653407 0.01915838 12.9115448 0.02015686 C16.83570053 0.02396475 20.75981892 0.03378021 24.68395996 0.04486084 C28.69254044 0.05511219 32.70112698 0.05966245 36.7097168 0.06469727 C44.56715576 0.07540409 52.42456444 0.09245967 60.28198242 0.11352539 C60.30663635 4.65250244 60.32482031 9.19144082 60.33691406 13.73046875 C60.34195382 15.27572305 60.34878562 16.82097255 60.35742188 18.36621094 C60.36950318 20.58277568 60.37521415 22.79927757 60.37963867 25.01586914 C60.38479996 25.71066879 60.38996124 26.40546844 60.39527893 27.12132263 C60.39547519 28.78581869 60.34387371 30.45018038 60.28198242 32.11352539 C58.50425431 33.8912535 55.90215587 33.25697977 53.49633789 33.27124023 C52.25769989 33.28150238 51.01906189 33.29176453 49.7428894 33.30233765 C48.74297785 33.30749453 48.74297785 33.30749453 47.72286606 33.31275558 C45.63725989 33.32453013 43.55186218 33.34398266 41.46633911 33.36587524 C35.53484108 33.42751316 29.6033596 33.48139279 23.67163086 33.51489258 C20.0457757 33.53592285 16.42029261 33.5713016 12.79465103 33.61565018 C11.41610239 33.62975526 10.03748782 33.63852015 8.6588707 33.64170456 C-1.43747732 33.64143933 -1.43747732 33.64143933 -10.71801758 37.11352539 C-11.70801758 37.44352539 -12.69801758 37.77352539 -13.71801758 38.11352539 C-14.81970742 39.81121774 -14.81970742 39.81121774 -15.71801758 42.11352539 C-16.25426758 43.14477539 -16.79051758 44.17602539 -17.34301758 45.23852539 C-19.52260513 50.45835815 -19.69275412 55.95251535 -18.02661133 61.35571289 C-15.87864202 66.1189921 -13.19287358 69.29602346 -8.71801758 72.11352539 C-1.02907767 74.49684979 6.93788716 74.43716807 14.91088867 74.49243164 C16.18173813 74.50942612 17.45258759 74.52642059 18.76194763 74.54393005 C22.10694038 74.58778789 25.45182104 74.6242267 28.79693604 74.65612793 C33.53920134 74.70221189 38.2813279 74.75772063 43.02342224 74.8188324 C45.54294292 74.85084491 48.06253495 74.87771753 50.58216858 74.89906311 C51.71101974 74.91255295 52.83987091 74.92604279 54.00292969 74.93994141 C55.49990135 74.95420921 55.49990135 74.95420921 57.02711487 74.96876526 C59.28198242 75.11352539 59.28198242 75.11352539 60.28198242 76.11352539 C60.38219172 78.39300331 60.41279545 80.67559674 60.41479492 82.95727539 C60.41575165 83.64156616 60.41670837 84.32585693 60.41769409 85.03088379 C60.41837572 86.48014416 60.41652265 87.92940757 60.41235352 89.37866211 C60.40700494 91.60415467 60.41229902 93.8294454 60.41870117 96.05493164 C60.41804039 97.45988001 60.41675922 98.86482824 60.41479492 100.26977539 C60.41366699 101.5569043 60.41253906 102.8440332 60.41137695 104.17016602 C60.28198242 107.11352539 60.28198242 107.11352539 59.28198242 108.11352539 C57.37684187 108.21801515 55.46780649 108.25207846 53.55981445 108.25878906 C52.33408722 108.26516891 51.10835999 108.27154877 49.8454895 108.27812195 C48.49359171 108.27965203 47.14169339 108.28076524 45.78979492 108.28149414 C44.40510015 108.28470803 43.02040573 108.28807221 41.63571167 108.2915802 C38.72189551 108.29758372 35.80810903 108.29941925 32.89428711 108.29882812 C29.18816286 108.29872733 25.48223379 108.31228735 21.77615547 108.32960033 C18.90881507 108.34081701 16.04152008 108.34274427 13.17416 108.3422184 C11.1520724 108.34395148 9.12999898 108.35474565 7.10794067 108.36576843 C-2.26858841 108.34282301 -11.01192577 107.80519742 -19.71801758 104.11352539 C-19.71579697 105.08849472 -19.71357635 106.06346405 -19.71128845 107.06797791 C-19.69105661 116.23582257 -19.67604523 125.40366273 -19.66620541 134.57152462 C-19.66097669 139.28532272 -19.65387924 143.99910286 -19.64257812 148.71289062 C-19.63174885 153.25807943 -19.62574066 157.80325091 -19.62314034 162.34845161 C-19.62128616 164.08647497 -19.61766569 165.82449733 -19.61228752 167.56251335 C-19.60507655 169.98831134 -19.60402666 172.41403685 -19.60449219 174.83984375 C-19.60089691 175.56560608 -19.59730164 176.29136841 -19.59359741 177.03912354 C-19.60396542 181.99947323 -19.60396542 181.99947323 -20.71801758 183.11352539 C-22.99749549 183.21373469 -25.28008893 183.24433842 -27.56176758 183.24633789 C-28.58820374 183.24777298 -28.58820374 183.24777298 -29.63537598 183.24923706 C-31.08463635 183.24991869 -32.53389976 183.24806562 -33.9831543 183.24389648 C-36.20864686 183.23854791 -38.43393759 183.24384199 -40.65942383 183.25024414 C-42.06437219 183.24958336 -43.46932043 183.24830219 -44.87426758 183.24633789 C-46.16139648 183.24520996 -47.44852539 183.24408203 -48.7746582 183.24291992 C-51.71801758 183.11352539 -51.71801758 183.11352539 -52.71801758 182.11352539 C-52.81858887 180.41519746 -52.84878156 178.71266838 -52.85173035 177.0113678 C-52.85599533 175.90536224 -52.86026031 174.79935669 -52.86465454 173.65983582 C-52.86420135 172.43549332 -52.86374817 171.21115082 -52.86328125 169.94970703 C-52.86663986 168.66839905 -52.86999847 167.38709106 -52.87345886 166.06695557 C-52.88232383 162.53959159 -52.88463822 159.01225186 -52.88527465 155.48487782 C-52.88598455 153.27919146 -52.88811789 151.07351129 -52.89077187 148.86782646 C-52.90003846 141.16643761 -52.90410573 133.46506611 -52.90332031 125.76367188 C-52.90272142 118.59802868 -52.91323275 111.43246123 -52.92906398 104.26683718 C-52.94217973 98.10959555 -52.94750241 91.95237852 -52.9468649 85.79512304 C-52.9466108 82.12049449 -52.9494126 78.44593301 -52.96004295 74.77131844 C-52.97160561 70.66145884 -52.96695252 66.55176602 -52.9609375 62.44189453 C-52.96655701 61.23577011 -52.97217651 60.02964569 -52.97796631 58.78697205 C-52.92467619 44.41296884 -50.13628793 31.2915252 -40.71801758 20.11352539 C-39.99614258 19.12352539 -39.27426758 18.13352539 -38.53051758 17.11352539 C-29.00396655 6.01433736 -14.42880968 -0.0271729 0 0 Z " fill="#D82DD7" transform="translate(151.718017578125,186.886474609375)"/>
<path d="M0 0 C3.88138052 1.56169898 7.44174626 3.60088395 11.0625 5.6875 C12.11397217 6.27547363 13.16544434 6.86344727 14.2487793 7.46923828 C17.50853217 9.29680468 20.75471235 11.14689515 24 13 C25.91068672 14.07819145 27.82211433 15.15507129 29.734375 16.23046875 C33.50069924 18.35135311 37.26158778 20.48149254 41.01953125 22.6171875 C47.48966841 26.28701051 53.99362674 29.89492444 60.5 33.5 C68.85417109 38.13050654 77.19110507 42.78872607 85.5 47.5 C93.72848344 52.16414385 101.98043068 56.78409218 110.25 61.375 C111.36544189 61.9949585 112.48088379 62.61491699 113.63012695 63.25366211 C118.93532346 66.19972556 124.24451128 69.13767309 129.56729126 72.05181885 C132.0197832 73.3953457 134.46977565 74.7433939 136.91955566 76.09185791 C138.63371505 77.03297082 140.35147191 77.96752197 142.06933594 78.90185547 C158.27606647 87.8281994 158.27606647 87.8281994 160 93 C160.09960173 95.44690602 160.14345465 97.86541229 160.14044189 100.31246948 C160.14341302 101.06287856 160.14638414 101.81328764 160.1494453 102.58643639 C160.15813709 105.10825396 160.15964094 107.63002409 160.16113281 110.15185547 C160.1657606 111.95697125 160.17078521 113.76208605 160.17617798 115.56719971 C160.1893067 120.47629175 160.19574772 125.38537012 160.20018864 130.29447699 C160.20311826 133.36012933 160.20722282 136.42577792 160.21169281 139.49142838 C160.22536822 149.07931656 160.23503499 158.66719619 160.2388947 168.25509346 C160.24337743 179.33028642 160.26093512 190.40535608 160.2898953 201.48051155 C160.31149409 210.03684521 160.321598 218.59314414 160.32293582 227.14950478 C160.32398503 232.26204993 160.32991758 237.37447919 160.34775543 242.4869957 C160.36420522 247.29521762 160.36640669 252.10323614 160.35761642 256.91147614 C160.35684442 258.67674681 160.36121019 260.44202829 160.37107468 262.20727158 C160.38374779 264.61627908 160.37794303 267.0245611 160.36749268 269.43356323 C160.37957728 270.48254911 160.37957728 270.48254911 160.39190602 271.55272663 C160.34806404 275.87083135 159.6506281 278.57296367 157 282 C153.83181244 284.11212504 151.86780748 284.33156464 148.1328125 284.55859375 C144.69457102 283.65810193 143.22703764 281.70671492 141 279 C140.36914349 275.60486889 140.36914349 275.60486889 140.36076355 271.64115906 C140.35240787 270.91001461 140.3440522 270.17887017 140.33544332 269.42556983 C140.31353222 266.9807353 140.32711341 264.53740567 140.34057617 262.0925293 C140.33212259 260.33810791 140.32147832 258.58369592 140.30880737 256.82929993 C140.28063887 252.06928657 140.28313656 247.3097235 140.29110122 242.54965186 C140.29422412 237.57411522 140.26919827 232.59872252 140.24714661 227.62324524 C140.20967724 218.20273872 140.1975569 208.78237656 140.1945222 199.36180288 C140.18983452 188.63630743 140.15692049 177.91095689 140.12162435 167.1855253 C140.04965442 145.12370002 140.01316741 123.06193358 140 101 C139.19351013 100.55524323 138.38702026 100.11048645 137.55609131 99.6522522 C134.49238183 97.96260069 131.42875264 96.27280379 128.36517334 94.58291626 C127.05262286 93.8589426 125.74004266 93.13502281 124.4274292 92.41116333 C105.71868271 82.09382671 87.04464194 71.71516452 68.40869141 61.2668457 C60.82310578 57.01583913 53.22692631 52.78420972 45.625 48.5625 C44.5122168 47.9442334 43.39943359 47.3259668 42.25292969 46.68896484 C37.0453087 43.79675999 31.83584744 40.90798343 26.62081909 38.02915955 C-12.19024398 16.60278722 -12.19024398 16.60278722 -13.875 11.1875 C-14.02929921 7.25287011 -13.09777726 5.29650712 -11 2 C-7.20998578 -0.52667615 -4.37856861 -0.778231 0 0 Z " fill="#CD25E1" transform="translate(231,73)"/>
</svg>
